<?xml version="1.0" encoding="UTF-8"?>
<svg xmlns="http://www.w3.org/2000/svg" viewBox="0 0 24 24" fill="currentColor">
  <path d="M22.46 6c-.77.35-1.6.58-2.46.69a4.27 4.27 0 0 0 1.87-2.36 8.54 8.54 0 0 1-2.71 1.04 4.26 4.26 0 0 0-7.27 3.89A12.1 12.1 0 0 1 3.09 4.83a4.25 4.25 0 0 0 1.32 5.68 4.23 4.23 0 0 1-1.93-.53v.05a4.26 4.26 0 0 0 3.42 4.18 4.26 4.26 0 0 1-1.12.15c-.27 0-.55-.03-.81-.08a4.26 4.26 0 0 0 3.98 2.96A8.54 8.54 0 0 1 2 19.54a12.06 12.06 0 0 0 6.53 1.92c7.84 0 12.13-6.49 12.13-12.12 0-.18 0-.36-.01-.54A8.66 8.66 0 0 0 24 5.1a8.49 8.49 0 0 1-2.54.7z"/>
</svg>
